<svg xmlns="http://www.w3.org/2000/svg" width="24" height="24" fill="none" viewBox="0 0 24 24">
    <path fill="#fff" d="M10.948 2H3c-1.105 0-2 .895-2 2v16c0 1.105.895 2 2 2h13c1.105 0 2-.895 2-2V4c0-1.105-.895-2-2-2h-5.052z"/>
    <path fill="#000" d="M3 3.5c-.276 0-.5.224-.5.5v16c0 .276.224.5.5.5h13c.276 0 .5-.224.5-.5v-2.313l1.5-.46V20c0 1.105-.895 2-2 2H3c-1.105 0-2-.895-2-2V4c0-1.105.895-2 2-2h13c1.105 0 2 .895 2 2v2.633l-1.5-.406V4c0-.276-.224-.5-.5-.5H3z"/>
    <path stroke="#000" stroke-linecap="round" stroke-linejoin="round" stroke-width="1.5" d="M22.669 18.669l-2.835-2.835"/>
    <circle cx="16" cy="12" r="5.25" stroke="#000" stroke-width="1.5"/>
</svg>
